<svg xmlns="http://www.w3.org/2000/svg" width="900" height="463" viewBox="0 0 900 463" role="img" aria-labelledby="title desc">
<title id="title">Variação em 7 dias: Investimentos EA FC: Italianos em 23/07 — PC</title>
<desc id="desc">Gráfico gerado a partir da tabela publicada neste artigo.</desc>
<rect width="100%" height="100%" rx="20" fill="#0f172a"/>
<text x="28" y="42" fill="#f8fafc" font-family="system-ui,sans-serif" font-size="23" font-weight="700">Variação em 7 dias</text>
<text x="28" y="70" fill="#94a3b8" font-family="system-ui,sans-serif" font-size="15">Dados do recorte publicado no artigo</text>
<text x="28" y="117" fill="#e2e8f0" font-family="system-ui,sans-serif" font-size="16">Sandro Tonali</text>
<rect x="285" y="95" width="480" height="28" rx="7" fill="#22c55e"/>
<text x="775" y="116" fill="#f8fafc" font-family="system-ui,sans-serif" font-size="15" font-weight="700">+44.2%</text>
<text x="28" y="175" fill="#e2e8f0" font-family="system-ui,sans-serif" font-size="16">Marco Carnesecchi</text>
<rect x="285" y="153" width="460" height="28" rx="7" fill="#22c55e"/>
<text x="755" y="174" fill="#f8fafc" font-family="system-ui,sans-serif" font-size="15" font-weight="700">+42.4%</text>
<text x="28" y="233" fill="#e2e8f0" font-family="system-ui,sans-serif" font-size="16">Roberto Baggio</text>
<rect x="285" y="211" width="353" height="28" rx="7" fill="#22c55e"/>
<text x="648" y="232" fill="#f8fafc" font-family="system-ui,sans-serif" font-size="15" font-weight="700">+32.5%</text>
<text x="28" y="291" fill="#e2e8f0" font-family="system-ui,sans-serif" font-size="16">Tommaso Biasci</text>
<rect x="285" y="269" width="312" height="28" rx="7" fill="#22c55e"/>
<text x="607" y="290" fill="#f8fafc" font-family="system-ui,sans-serif" font-size="15" font-weight="700">+28.7%</text>
<text x="28" y="349" fill="#e2e8f0" font-family="system-ui,sans-serif" font-size="16">Ilario Monterisi</text>
<rect x="285" y="327" width="150" height="28" rx="7" fill="#22c55e"/>
<text x="445" y="348" fill="#f8fafc" font-family="system-ui,sans-serif" font-size="15" font-weight="700">+13.8%</text>
<text x="28" y="407" fill="#e2e8f0" font-family="system-ui,sans-serif" font-size="16">Luca Mazzitelli</text>
<rect x="285" y="385" width="108" height="28" rx="7" fill="#22c55e"/>
<text x="403" y="406" fill="#f8fafc" font-family="system-ui,sans-serif" font-size="15" font-weight="700">+9.9%</text>
</svg>
