<svg xmlns="http://www.w3.org/2000/svg" width="900" height="463" viewBox="0 0 900 463" role="img" aria-labelledby="title desc">
<title id="title">Variação em 24h: Mercado EA FC em 23/07: Italianos — PC</title>
<desc id="desc">Gráfico gerado a partir da tabela publicada neste artigo.</desc>
<rect width="100%" height="100%" rx="20" fill="#0f172a"/>
<text x="28" y="42" fill="#f8fafc" font-family="system-ui,sans-serif" font-size="23" font-weight="700">Variação em 24h</text>
<text x="28" y="70" fill="#94a3b8" font-family="system-ui,sans-serif" font-size="15">Dados do recorte publicado no artigo</text>
<text x="28" y="117" fill="#e2e8f0" font-family="system-ui,sans-serif" font-size="16">Nicolò Cambiaghi</text>
<rect x="285" y="95" width="480" height="28" rx="7" fill="#22c55e"/>
<text x="775" y="116" fill="#f8fafc" font-family="system-ui,sans-serif" font-size="15" font-weight="700">+58.3%</text>
<text x="28" y="175" fill="#e2e8f0" font-family="system-ui,sans-serif" font-size="16">Davide Zappacosta</text>
<rect x="285" y="153" width="398" height="28" rx="7" fill="#22c55e"/>
<text x="693" y="174" fill="#f8fafc" font-family="system-ui,sans-serif" font-size="15" font-weight="700">+48.3%</text>
<text x="28" y="233" fill="#e2e8f0" font-family="system-ui,sans-serif" font-size="16">Luca Mazzitelli</text>
<rect x="285" y="211" width="337" height="28" rx="7" fill="#22c55e"/>
<text x="632" y="232" fill="#f8fafc" font-family="system-ui,sans-serif" font-size="15" font-weight="700">+40.9%</text>
<text x="28" y="291" fill="#e2e8f0" font-family="system-ui,sans-serif" font-size="16">Roberto Baggio</text>
<rect x="285" y="269" width="316" height="28" rx="7" fill="#22c55e"/>
<text x="611" y="290" fill="#f8fafc" font-family="system-ui,sans-serif" font-size="15" font-weight="700">+38.4%</text>
<text x="28" y="349" fill="#e2e8f0" font-family="system-ui,sans-serif" font-size="16">Gianluigi Donnarumma</text>
<rect x="285" y="327" width="251" height="28" rx="7" fill="#22c55e"/>
<text x="546" y="348" fill="#f8fafc" font-family="system-ui,sans-serif" font-size="15" font-weight="700">+30.5%</text>
<text x="28" y="407" fill="#e2e8f0" font-family="system-ui,sans-serif" font-size="16">Alessandro Bastoni</text>
<rect x="285" y="385" width="217" height="28" rx="7" fill="#22c55e"/>
<text x="512" y="406" fill="#f8fafc" font-family="system-ui,sans-serif" font-size="15" font-weight="700">+26.4%</text>
</svg>
