<svg xmlns="http://www.w3.org/2000/svg" width="900" height="463" viewBox="0 0 900 463" role="img" aria-labelledby="title desc">
<title id="title">Variação em 24h: Italianos no EA FC em 31/05: altas e baixas — PC</title>
<desc id="desc">Gráfico gerado a partir da tabela publicada neste artigo.</desc>
<rect width="100%" height="100%" rx="20" fill="#0f172a"/>
<text x="28" y="42" fill="#f8fafc" font-family="system-ui,sans-serif" font-size="23" font-weight="700">Variação em 24h</text>
<text x="28" y="70" fill="#94a3b8" font-family="system-ui,sans-serif" font-size="15">Dados do recorte publicado no artigo</text>
<text x="28" y="117" fill="#e2e8f0" font-family="system-ui,sans-serif" font-size="16">Daniele De Rossi</text>
<rect x="285" y="95" width="480" height="28" rx="7" fill="#22c55e"/>
<text x="775" y="116" fill="#f8fafc" font-family="system-ui,sans-serif" font-size="15" font-weight="700">+54.2%</text>
<text x="28" y="175" fill="#e2e8f0" font-family="system-ui,sans-serif" font-size="16">Gianluca Zambrotta</text>
<rect x="285" y="153" width="238" height="28" rx="7" fill="#22c55e"/>
<text x="533" y="174" fill="#f8fafc" font-family="system-ui,sans-serif" font-size="15" font-weight="700">+26.9%</text>
<text x="28" y="233" fill="#e2e8f0" font-family="system-ui,sans-serif" font-size="16">Nicolò Zaniolo</text>
<rect x="285" y="211" width="191" height="28" rx="7" fill="#22c55e"/>
<text x="486" y="232" fill="#f8fafc" font-family="system-ui,sans-serif" font-size="15" font-weight="700">+21.6%</text>
<text x="28" y="291" fill="#e2e8f0" font-family="system-ui,sans-serif" font-size="16">Gianluigi Donnarumma</text>
<rect x="285" y="269" width="180" height="28" rx="7" fill="#22c55e"/>
<text x="475" y="290" fill="#f8fafc" font-family="system-ui,sans-serif" font-size="15" font-weight="700">+20.3%</text>
<text x="28" y="349" fill="#e2e8f0" font-family="system-ui,sans-serif" font-size="16">Roberto Baggio</text>
<rect x="285" y="327" width="171" height="28" rx="7" fill="#22c55e"/>
<text x="466" y="348" fill="#f8fafc" font-family="system-ui,sans-serif" font-size="15" font-weight="700">+19.3%</text>
<text x="28" y="407" fill="#e2e8f0" font-family="system-ui,sans-serif" font-size="16">Riccardo Calafiori</text>
<rect x="285" y="385" width="126" height="28" rx="7" fill="#22c55e"/>
<text x="421" y="406" fill="#f8fafc" font-family="system-ui,sans-serif" font-size="15" font-weight="700">+14.2%</text>
</svg>
